<?xml version="1.0" encoding="UTF-8"?>
<svg xmlns="http://www.w3.org/2000/svg" viewBox="0 0 800 600" width="800" height="600">
  <defs>
    <style>
      .title { font: bold 16px sans-serif; fill: #333; }
      .subtitle { font: 14px sans-serif; fill: #666; }
      .label { font: 12px sans-serif; fill: #333; }
      .small { font: 11px sans-serif; fill: #555; }
      .component { fill: #e3f2fd; stroke: #1976d2; stroke-width: 2; rx: 8; }
      .app-layer { fill: #f3e5f5; stroke: #7b1fa2; stroke-width: 2; rx: 12; }
      .lib-layer { fill: #e8f5e9; stroke: #388e3c; stroke-width: 2; rx: 12; }
      .handler { fill: #fff3e0; stroke: #f57c00; stroke-width: 1.5; rx: 6; }
      .arrow { stroke: #666; stroke-width: 2; fill: none; marker-end: url(#arrowhead); }
      .arrow-bi { stroke: #1976d2; stroke-width: 2; fill: none; }
    </style>
    <marker id="arrowhead" markerWidth="10" markerHeight="7" refX="9" refY="3.5" orient="auto">
      <polygon points="0 0, 10 3.5, 0 7" fill="#666"/>
    </marker>
  </defs>

  <!-- Application Layer -->
  <rect x="20" y="20" width="760" height="220" class="app-layer"/>
  <text x="40" y="50" class="title">Your Application</text>

  <!-- Custom UI -->
  <rect x="40" y="70" width="720" height="40" class="component"/>
  <text x="400" y="95" text-anchor="middle" class="label">Your Custom UI (optional)</text>

  <!-- Event Handlers -->
  <rect x="40" y="130" width="720" height="90" class="component"/>
  <text x="60" y="155" class="subtitle">Event Handlers</text>

  <!-- Handler boxes -->
  <rect x="80" y="170" width="80" height="35" class="handler"/>
  <text x="120" y="193" text-anchor="middle" class="small">CLI</text>

  <rect x="180" y="170" width="80" height="35" class="handler"/>
  <text x="220" y="193" text-anchor="middle" class="small">TUI</text>

  <rect x="280" y="170" width="80" height="35" class="handler"/>
  <text x="320" y="193" text-anchor="middle" class="small">...</text>

  <text x="400" y="193" class="small" fill="#888">← Built-in or custom</text>

  <!-- Library Layer -->
  <rect x="20" y="260" width="760" height="240" class="lib-layer"/>
  <text x="40" y="290" class="title">Yoker Library</text>

  <!-- Agent -->
  <rect x="40" y="310" width="180" height="100" class="component"/>
  <text x="130" y="340" text-anchor="middle" class="subtitle">Agent</text>
  <text x="130" y="365" text-anchor="middle" class="small">• Session lifecycle</text>
  <text x="130" y="385" text-anchor="middle" class="small">• Tool orchestration</text>

  <!-- Tools Registry -->
  <rect x="260" y="310" width="180" height="100" class="component"/>
  <text x="350" y="340" text-anchor="middle" class="subtitle">Tools Registry</text>
  <text x="350" y="365" text-anchor="middle" class="small">• read, write</text>
  <text x="350" y="385" text-anchor="middle" class="small">• Your tools plug in!</text>

  <!-- Context Manager -->
  <rect x="480" y="310" width="180" height="100" class="component"/>
  <text x="570" y="340" text-anchor="middle" class="subtitle">Context Manager</text>
  <text x="570" y="365" text-anchor="middle" class="small">• Basic (JSONL)</text>
  <text x="570" y="385" text-anchor="middle" class="small">• Your custom...</text>

  <!-- Bidirectional arrows between components -->
  <line x1="220" y1="360" x2="260" y2="360" class="arrow-bi"/>
  <line x1="440" y1="360" x2="480" y2="360" class="arrow-bi"/>

  <!-- Event Emission -->
  <rect x="40" y="440" width="720" height="45" class="component"/>
  <text x="400" y="468" text-anchor="middle" class="label">Event Emission: session, turn, thinking, content, tool, error, command...</text>

  <!-- Arrow from Agent to Events -->
  <line x1="130" y1="410" x2="130" y2="440" class="arrow"/>

  <!-- Custom Handler -->
  <rect x="20" y="520" width="760" height="50" fill="#fff8e1" stroke="#ffc107" stroke-width="2" rx="8"/>
  <text x="400" y="550" text-anchor="middle" class="label">Your Custom Handler (Console, File, API, Database...)</text>

  <!-- Arrow from Events to Custom Handler -->
  <line x1="400" y1="485" x2="400" y2="520" class="arrow"/>
</svg>